<svg viewBox="0 0 19.3339 22.3542" fill="none" xmlns="http://www.w3.org/2000/svg" xmlns:xlink="http://www.w3.org/1999/xlink" x="0" y="0"><g id="Group">
<path id="Vector_4" d="M0,18.7292l0.0031,-4.807c0,-0.161 0.0636,-0.314 0.1769,-0.428c0.1133,-0.113 0.267,-0.177 0.4272,-0.177h6.0429c0.557,0 0.554,-0.494 0.554,-1.669c0,-1.176 -2.9616,-2.166 -2.9616,-6.299c0,-4.134 3.0679,-5.349 5.6175,-5.349c2.5496,0 5.327,1.215 5.327,5.349c0,4.133 -2.9459,4.79 -2.9459,6.299c0,1.508 0,1.669 0.4712,1.669h6.0175c0.1602,0 0.3139,0.064 0.4272,0.177c0.1133,0.114 0.177,0.267 0.177,0.428v4.807z" stroke="#FCFCFC" stroke-width="2" stroke-linejoin="round"/>
<path id="Vector_5" d="M0,22.3542h19.3334" stroke="#FCFCFC" stroke-width="2" stroke-linecap="round" stroke-linejoin="round"/>
</g></svg>